<?xml version="1.0" encoding="UTF-8"?><svg xmlns="http://www.w3.org/2000/svg" xmlns:xlink="http://www.w3.org/1999/xlink" fill-opacity="1" color-rendering="auto" color-interpolation="auto" stroke="black" text-rendering="auto" stroke-linecap="square" width="375" stroke-miterlimit="10" stroke-opacity="1" shape-rendering="auto" fill="black" stroke-dasharray="none" font-weight="normal" stroke-width="1" height="436" font-family="'Dialog'" font-style="normal" stroke-linejoin="miter" font-size="12" stroke-dashoffset="0" image-rendering="auto">
  <!--Generated by ySVG-->
  <defs id="genericDefs"/>
  <g>
    <defs id="defs1">
      <linearGradient x1="370" gradientUnits="userSpaceOnUse" x2="450" y1="84" y2="124" id="linearGradient1" spreadMethod="pad">
        <stop stop-opacity="1" stop-color="rgb(232,238,247)" offset="0%"/>
        <stop stop-opacity="1" stop-color="rgb(183,201,227)" offset="100%"/>
      </linearGradient>
      <linearGradient x1="370" gradientUnits="userSpaceOnUse" x2="450" y1="450" y2="490" id="linearGradient2" spreadMethod="pad">
        <stop stop-opacity="1" stop-color="rgb(232,238,247)" offset="0%"/>
        <stop stop-opacity="1" stop-color="rgb(183,201,227)" offset="100%"/>
      </linearGradient>
      <linearGradient x1="341.5" gradientUnits="userSpaceOnUse" x2="478.5" y1="145" y2="185" id="linearGradient3" spreadMethod="pad">
        <stop stop-opacity="1" stop-color="rgb(232,238,247)" offset="0%"/>
        <stop stop-opacity="1" stop-color="rgb(183,201,227)" offset="100%"/>
      </linearGradient>
      <linearGradient x1="341.5" gradientUnits="userSpaceOnUse" x2="478.5" y1="206" y2="246" id="linearGradient4" spreadMethod="pad">
        <stop stop-opacity="1" stop-color="rgb(232,238,247)" offset="0%"/>
        <stop stop-opacity="1" stop-color="rgb(183,201,227)" offset="100%"/>
      </linearGradient>
      <linearGradient x1="341.5" gradientUnits="userSpaceOnUse" x2="478.5" y1="267" y2="307" id="linearGradient5" spreadMethod="pad">
        <stop stop-opacity="1" stop-color="rgb(232,238,247)" offset="0%"/>
        <stop stop-opacity="1" stop-color="rgb(183,201,227)" offset="100%"/>
      </linearGradient>
      <linearGradient x1="341.5" gradientUnits="userSpaceOnUse" x2="478.5" y1="328" y2="368" id="linearGradient6" spreadMethod="pad">
        <stop stop-opacity="1" stop-color="rgb(232,238,247)" offset="0%"/>
        <stop stop-opacity="1" stop-color="rgb(183,201,227)" offset="100%"/>
      </linearGradient>
      <linearGradient x1="341.5" gradientUnits="userSpaceOnUse" x2="478.5" y1="389" y2="429" id="linearGradient7" spreadMethod="pad">
        <stop stop-opacity="1" stop-color="rgb(232,238,247)" offset="0%"/>
        <stop stop-opacity="1" stop-color="rgb(183,201,227)" offset="100%"/>
      </linearGradient>
      <clipPath clipPathUnits="userSpaceOnUse" id="clipPath1">
        <path d="M0 0 L375 0 L375 436 L0 436 L0 0 Z"/>
      </clipPath>
      <clipPath clipPathUnits="userSpaceOnUse" id="clipPath2">
        <path d="M265 69 L640 69 L640 505 L265 505 L265 69 Z"/>
      </clipPath>
    </defs>
    <g fill="white" transform="translate(-265,-69)" stroke="white">
      <rect x="265" width="375" height="436" y="69" clip-path="url(#clipPath2)" stroke="none"/>
    </g>
    <g fill="rgb(255,204,0)" transform="matrix(1,0,0,1,-265,-69)" stroke="rgb(255,204,0)">
      <rect x="280.75" width="258.5" height="1" y="256" clip-path="url(#clipPath2)" stroke="none"/>
    </g>
    <g stroke-linecap="butt" transform="matrix(1,0,0,1,-265,-69)" stroke-miterlimit="1.45">
      <rect fill="none" x="280.75" width="258.5" height="1" y="256" clip-path="url(#clipPath2)"/>
    </g>
    <g fill="url(#linearGradient1)" stroke-miterlimit="1.45" transform="matrix(1,0,0,1,-265,-69)" stroke-linecap="butt" stroke="url(#linearGradient1)">
      <rect x="370" y="84" clip-path="url(#clipPath2)" width="80" rx="20" ry="20" height="40" stroke="none"/>
      <rect x="370" y="84" clip-path="url(#clipPath2)" fill="none" width="80" rx="20" ry="20" height="40" stroke="black"/>
      <text x="395.3428" y="108.1543" clip-path="url(#clipPath2)" fill="black" font-family="sans-serif" stroke="none" xml:space="preserve">Start</text>
    </g>
    <g fill="url(#linearGradient2)" stroke-miterlimit="1.45" transform="matrix(1,0,0,1,-265,-69)" stroke-linecap="butt" stroke="url(#linearGradient2)">
      <rect x="370" y="450" clip-path="url(#clipPath2)" width="80" rx="20" ry="20" height="40" stroke="none"/>
      <rect x="370" y="450" clip-path="url(#clipPath2)" fill="none" width="80" rx="20" ry="20" height="40" stroke="black"/>
      <text x="396.3594" y="474.1543" clip-path="url(#clipPath2)" fill="black" font-family="sans-serif" stroke="none" xml:space="preserve">Stop</text>
    </g>
    <g fill="url(#linearGradient3)" stroke-miterlimit="1.45" transform="matrix(1,0,0,1,-265,-69)" stroke-linecap="butt" stroke="url(#linearGradient3)">
      <path d="M341.5 145 L478.5 145 L478.5 185 L341.5 185 Z" clip-path="url(#clipPath2)" stroke="none"/>
      <path fill="none" d="M341.5 145 L478.5 145 L478.5 185 L341.5 185 Z" clip-path="url(#clipPath2)" stroke="black"/>
      <text x="381.2041" y="169.1543" clip-path="url(#clipPath2)" fill="black" font-family="sans-serif" stroke="none" xml:space="preserve">Boostrap </text>
    </g>
    <g fill="url(#linearGradient4)" stroke-miterlimit="1.45" transform="matrix(1,0,0,1,-265,-69)" stroke-linecap="butt" stroke="url(#linearGradient4)">
      <path d="M341.5 206 L478.5 206 L478.5 246 L341.5 246 Z" clip-path="url(#clipPath2)" stroke="none"/>
      <path fill="none" d="M341.5 206 L478.5 206 L478.5 246 L341.5 246 Z" clip-path="url(#clipPath2)" stroke="black"/>
      <text x="364.0889" y="230.1543" clip-path="url(#clipPath2)" fill="black" font-family="sans-serif" stroke="none" xml:space="preserve">Pre build check</text>
    </g>
    <g fill="url(#linearGradient5)" stroke-miterlimit="1.45" transform="matrix(1,0,0,1,-265,-69)" stroke-linecap="butt" stroke="url(#linearGradient5)">
      <path d="M341.5 267 L478.5 267 L478.5 307 L341.5 307 Z" clip-path="url(#clipPath2)" stroke="none"/>
      <path fill="none" d="M341.5 267 L478.5 267 L478.5 307 L341.5 307 Z" clip-path="url(#clipPath2)" stroke="black"/>
      <text x="376.9268" y="291.1543" clip-path="url(#clipPath2)" fill="black" font-family="sans-serif" stroke="none" xml:space="preserve">Build steps</text>
    </g>
    <g fill="url(#linearGradient6)" stroke-miterlimit="1.45" transform="matrix(1,0,0,1,-265,-69)" stroke-linecap="butt" stroke="url(#linearGradient6)">
      <path d="M341.5 328 L478.5 328 L478.5 368 L341.5 368 Z" clip-path="url(#clipPath2)" stroke="none"/>
      <path fill="none" d="M341.5 328 L478.5 328 L478.5 368 L341.5 368 Z" clip-path="url(#clipPath2)" stroke="black"/>
      <text x="367.3496" y="352.1543" clip-path="url(#clipPath2)" fill="black" font-family="sans-serif" stroke="none" xml:space="preserve">Cleanup steps</text>
    </g>
    <g fill="url(#linearGradient7)" stroke-miterlimit="1.45" transform="matrix(1,0,0,1,-265,-69)" stroke-linecap="butt" stroke="url(#linearGradient7)">
      <path d="M341.5 389 L478.5 389 L478.5 429 L341.5 429 Z" clip-path="url(#clipPath2)" stroke="none"/>
      <path fill="none" d="M341.5 389 L478.5 389 L478.5 429 L341.5 429 Z" clip-path="url(#clipPath2)" stroke="black"/>
      <text x="384.5674" y="413.1543" clip-path="url(#clipPath2)" fill="black" font-family="sans-serif" stroke="none" xml:space="preserve">Rollback</text>
    </g>
    <g fill="rgb(255,204,0)" transform="matrix(1,0,0,1,-265,-69)" stroke="rgb(255,204,0)">
      <rect x="280.75" width="258.5" height="1" y="317" clip-path="url(#clipPath2)" stroke="none"/>
    </g>
    <g stroke-linecap="butt" transform="matrix(1,0,0,1,-265,-69)" stroke-miterlimit="1.45">
      <rect fill="none" x="280.75" width="258.5" height="1" y="317" clip-path="url(#clipPath2)"/>
      <text x="548.5625" xml:space="preserve" y="216.1543" font-family="sans-serif" clip-path="url(#clipPath2)" stroke="none">Pre build</text>
      <text x="559.9385" xml:space="preserve" y="291.1543" font-family="sans-serif" clip-path="url(#clipPath2)" stroke="none">Build</text>
      <text x="545.5713" xml:space="preserve" y="366.1543" font-family="sans-serif" clip-path="url(#clipPath2)" stroke="none">Post build</text>
      <path fill="none" d="M410 123.9858 L410 137.0136" clip-path="url(#clipPath2)"/>
      <path d="M410 145.0136 L415 133.0136 L410 136.0136 L405 133.0136 Z" clip-path="url(#clipPath2)" stroke="none"/>
      <path fill="none" d="M410 184.9858 L410 198.0136" clip-path="url(#clipPath2)"/>
      <path d="M410 206.0136 L415 194.0136 L410 197.0136 L405 194.0136 Z" clip-path="url(#clipPath2)" stroke="none"/>
      <path fill="none" d="M410 245.9858 L410 259.0136" clip-path="url(#clipPath2)"/>
      <path d="M410 267.0136 L415 255.0136 L410 258.0136 L405 255.0136 Z" clip-path="url(#clipPath2)" stroke="none"/>
      <path fill="none" d="M410 306.9858 L410 320.0136" clip-path="url(#clipPath2)"/>
      <path d="M410 328.0136 L415 316.0136 L410 319.0136 L405 316.0136 Z" clip-path="url(#clipPath2)" stroke="none"/>
      <path fill="none" d="M410 367.9858 L410 381.0136" clip-path="url(#clipPath2)"/>
      <path d="M410 389.0136 L415 377.0136 L410 380.0136 L405 377.0136 Z" clip-path="url(#clipPath2)" stroke="none"/>
      <path fill="none" d="M410 428.9858 L410 442.0136" clip-path="url(#clipPath2)"/>
      <path d="M410 450.0136 L415 438.0136 L410 441.0136 L405 438.0136 Z" clip-path="url(#clipPath2)" stroke="none"/>
    </g>
  </g>
</svg>
